<?xml version='1.0' encoding='UTF-8'?>
<!DOCTYPE svg PUBLIC "-//W3C//DTD SVG 1.1//EN" "http://www.w3.org/Graphics/SVG/1.1/DTD/svg11.dtd">
<!-- Created with matplotlib (http://matplotlib.org/) -->
<svg xmlns="http://www.w3.org/2000/svg" xmlns:xlink="http://www.w3.org/1999/xlink" height="400px" version="1.1" viewBox="0 0 600 400" width="600px">
  <title>mplwp_legendreQ04.svg</title>
  <desc>http://commons.wikimedia.org/wiki/File:mplwp_legendreQ04.svg
Plot created with mplwp, the Matplotlib extension for Wikipedia plots.</desc>
  <defs>
    <style type="text/css">
*{stroke-linecap:square;stroke-linejoin:round;}
  </style>
  </defs>
  <defs>
    <clipPath id="pa82c4e93f3">
      <rect height="355.0" width="515.0" x="42.5" y="18.5"/>
    </clipPath>
  </defs>
  <g id="figure_1">
    <g id="patch_1">
      <path d="
M 0 400
L 600 400
L 600 0
L 0 0
z 
" style="fill:#ffffff;"/>
    </g>
    <g id="axes_1">
      <g id="patch_2">
        <path d="
M 42.5 373.5
L 557.5 373.5
L 557.5 18.5
L 42.5 18.5
z 
" style="fill:#ffffff;"/>
      </g>
      <g id="line2d_1">
        <path clip-path="url(#pa82c4e93f3)" d="
M 42.603 -1
L 42.603 401
M 54.9768 401
L 56.714 393.577
L 58.671 386.205
L 60.731 379.324
L 62.894 372.863
L 65.263 366.501
L 67.735 360.503
L 70.413 354.605
L 73.194 349.019
L 76.181 343.524
L 79.271 338.298
L 82.567 333.153
L 86.069 328.095
L 89.777 323.126
L 93.691 318.248
L 97.914 313.344
L 102.343 308.542
L 107.081 303.735
L 112.128 298.936
L 117.484 294.154
L 123.149 289.395
L 129.226 284.584
L 135.715 279.735
L 142.616 274.858
L 150.032 269.894
L 157.963 264.856
L 166.512 259.695
L 175.679 254.423
L 185.567 248.995
L 196.382 243.316
L 208.227 237.353
L 221.308 231.021
L 236.037 224.146
L 253.032 216.464
L 274.147 207.176
L 311.124 191.205
L 340.582 178.369
L 359.843 169.738
L 375.705 162.393
L 389.507 155.762
L 401.867 149.581
L 413.094 143.722
L 423.291 138.154
L 432.767 132.729
L 441.522 127.462
L 449.659 122.307
L 457.178 117.283
L 464.182 112.34
L 470.774 107.416
L 476.954 102.521
L 482.722 97.6675
L 488.078 92.8742
L 493.125 88.0628
L 497.863 83.2421
L 502.292 78.4248
L 506.515 73.5036
L 510.429 68.6072
L 514.137 63.6181
L 517.639 58.5368
L 520.935 53.3661
L 524.025 48.1115
L 527.012 42.584
L 529.793 36.9611
L 532.368 31.2581
L 534.84 25.2357
L 537.106 19.1367
L 539.269 12.6757
L 541.329 5.79522
L 543.141 -1
L 543.141 -1" style="fill:none;stroke:#0000cc;stroke-width:2.4;"/>
      </g>
      <g id="line2d_2">
        <path clip-path="url(#pa82c4e93f3)" d="
M 44.4112 -1
L 45.075 16.2606
L 45.899 32.4849
L 46.826 46.7373
L 47.959 60.652
L 49.195 73.0176
L 50.534 84.2058
L 51.976 94.4652
L 53.624 104.56
L 55.375 113.885
L 57.229 122.577
L 59.289 131.143
L 61.452 139.174
L 63.718 146.749
L 66.19 154.228
L 68.765 161.311
L 71.546 168.296
L 74.43 174.935
L 77.52 181.478
L 80.713 187.716
L 84.112 193.859
L 87.614 199.73
L 91.322 205.509
L 95.133 211.04
L 99.15 216.48
L 103.373 221.82
L 107.699 226.933
L 112.231 231.946
L 116.969 236.852
L 121.81 241.547
L 126.857 246.135
L 132.11 250.608
L 137.569 254.961
L 143.131 259.112
L 148.899 263.141
L 154.873 267.041
L 160.95 270.745
L 167.233 274.315
L 173.722 277.745
L 180.314 280.979
L 187.112 284.067
L 194.013 286.959
L 201.12 289.695
L 208.33 292.234
L 215.746 294.607
L 223.265 296.778
L 230.887 298.745
L 238.612 300.509
L 246.44 302.067
L 254.371 303.417
L 262.302 304.543
L 270.336 305.459
L 278.37 306.153
L 286.507 306.633
L 294.644 306.889
L 302.781 306.925
L 310.918 306.738
L 319.055 306.329
L 327.192 305.696
L 335.226 304.848
L 343.26 303.776
L 351.191 302.494
L 359.019 301.004
L 366.744 299.31
L 374.366 297.414
L 381.885 295.316
L 389.301 293.018
L 396.614 290.519
L 403.721 287.857
L 410.725 284.999
L 417.626 281.941
L 424.321 278.731
L 430.81 275.376
L 437.196 271.825
L 443.376 268.135
L 449.35 264.312
L 455.221 260.291
L 460.886 256.142
L 466.345 251.869
L 471.598 247.481
L 476.748 242.889
L 481.692 238.181
L 486.43 233.365
L 490.962 228.449
L 495.391 223.315
L 499.614 218.081
L 503.631 212.754
L 507.545 207.194
L 511.253 201.541
L 514.858 195.631
L 518.257 189.628
L 521.45 183.544
L 524.54 177.177
L 527.424 170.732
L 530.205 163.972
L 532.78 157.14
L 535.252 149.955
L 537.621 142.366
L 539.784 134.692
L 541.844 126.557
L 543.801 117.879
L 545.552 109.103
L 547.2 99.6981
L 548.745 89.5308
L 550.084 79.2764
L 551.32 68.1491
L 552.453 55.9381
L 553.483 42.3401
L 554.41 26.8948
L 555.131 11.4211
L 555.589 -1
L 555.589 -1" style="fill:none;stroke:#dd00aa;stroke-width:2.4;"/>
      </g>
      <g id="line2d_3">
        <path clip-path="url(#pa82c4e93f3)" d="
M 42.603 -1
L 42.603 401
M 43.1111 401
L 43.427 376.875
L 43.942 350.963
L 44.663 326.709
L 45.487 306.988
L 46.414 290.136
L 47.444 275.29
L 48.577 261.941
L 49.916 248.837
L 51.358 236.957
L 52.903 226.059
L 54.551 215.975
L 56.302 206.586
L 58.156 197.802
L 60.113 189.558
L 62.173 181.801
L 64.336 174.493
L 66.602 167.602
L 68.971 161.103
L 71.443 154.976
L 73.915 149.426
L 76.49 144.178
L 79.168 139.228
L 81.846 134.735
L 84.627 130.502
L 87.408 126.665
L 90.292 123.062
L 93.176 119.808
L 96.163 116.774
L 99.15 114.053
L 102.24 111.54
L 105.33 109.313
L 108.523 107.287
L 111.716 105.523
L 115.012 103.957
L 118.308 102.634
L 121.707 101.505
L 125.209 100.579
L 128.814 99.8586
L 132.522 99.3506
L 136.333 99.059
L 140.247 98.988
L 144.264 99.1411
L 148.384 99.5216
L 152.607 100.132
L 157.036 100.999
L 161.671 102.137
L 166.409 103.531
L 171.353 105.217
L 176.503 107.209
L 181.859 109.519
L 187.524 112.207
L 193.395 115.239
L 199.575 118.682
L 206.064 122.552
L 212.965 126.928
L 220.278 131.831
L 228.106 137.351
L 236.552 143.585
L 245.719 150.633
L 255.813 158.68
L 267.349 168.169
L 281.357 179.992
L 303.811 199.283
L 326.162 218.387
L 339.552 229.54
L 350.676 238.524
L 360.461 246.149
L 369.422 252.853
L 377.662 258.743
L 385.284 263.922
L 392.494 268.555
L 399.292 272.66
L 405.678 276.26
L 411.755 279.434
L 417.523 282.2
L 423.085 284.622
L 428.338 286.67
L 433.385 288.404
L 438.226 289.835
L 442.861 290.979
L 447.393 291.868
L 451.719 292.491
L 455.942 292.872
L 459.959 293.014
L 463.873 292.931
L 467.684 292.627
L 471.392 292.106
L 474.997 291.373
L 478.499 290.433
L 481.898 289.29
L 485.194 287.952
L 488.49 286.371
L 491.683 284.59
L 494.773 282.618
L 497.863 280.381
L 500.85 277.947
L 503.837 275.226
L 506.721 272.302
L 509.605 269.06
L 512.386 265.605
L 515.167 261.795
L 517.845 257.756
L 520.523 253.313
L 523.098 248.615
L 525.673 243.448
L 528.145 237.987
L 530.514 232.225
L 532.883 225.868
L 535.149 219.137
L 537.312 212.011
L 539.372 204.463
L 541.329 196.461
L 543.183 187.962
L 544.934 178.913
L 546.582 169.243
L 548.127 158.858
L 549.569 147.631
L 550.908 135.385
L 552.144 121.861
L 553.174 108.19
L 554.101 93.0269
L 554.925 75.8935
L 555.646 56.0085
L 556.264 31.9422
L 556.676 8.2903
L 556.797 -1
L 556.797 -1" style="fill:none;stroke:#bbbb00;stroke-width:2.4;"/>
      </g>
      <g id="line2d_4">
        <path clip-path="url(#pa82c4e93f3)" d="
M 42.8636 -1
L 43.221 39.5122
L 43.736 71.8342
L 44.354 96.847
L 45.075 117.651
L 46.002 137.613
L 47.032 154.732
L 48.165 169.814
L 49.401 183.33
L 50.74 195.573
L 52.182 206.741
L 53.727 216.967
L 55.375 226.348
L 57.023 234.482
L 58.774 242.016
L 60.525 248.606
L 62.379 254.717
L 64.233 260.069
L 66.087 264.764
L 67.941 268.884
L 69.795 272.495
L 71.752 275.815
L 73.709 278.682
L 75.666 281.142
L 77.623 283.231
L 79.58 284.983
L 81.537 286.426
L 83.494 287.586
L 85.451 288.485
L 87.408 289.141
L 89.468 289.59
L 91.528 289.809
L 93.691 289.81
L 95.957 289.577
L 98.326 289.098
L 100.798 288.361
L 103.373 287.356
L 106.154 286.022
L 109.038 284.389
L 112.128 282.384
L 115.424 279.982
L 119.029 277.075
L 122.943 273.627
L 127.269 269.508
L 132.007 264.679
L 137.26 259.002
L 143.337 252.097
L 150.547 243.554
L 160.229 231.712
L 186.7 199.155
L 195.146 189.224
L 202.562 180.843
L 209.257 173.606
L 215.54 167.136
L 221.514 161.302
L 227.179 156.08
L 232.638 151.351
L 237.891 147.095
L 242.938 143.29
L 247.882 139.844
L 252.62 136.809
L 257.255 134.1
L 261.787 131.706
L 266.216 129.614
L 270.542 127.811
L 274.868 126.249
L 279.091 124.958
L 283.314 123.901
L 287.434 123.097
L 291.554 122.519
L 295.674 122.167
L 299.794 122.042
L 303.914 122.144
L 308.034 122.473
L 312.154 123.029
L 316.274 123.811
L 320.394 124.816
L 324.617 126.079
L 328.84 127.573
L 333.166 129.342
L 337.595 131.399
L 342.024 133.702
L 346.556 136.308
L 351.191 139.229
L 355.929 142.476
L 360.873 146.137
L 365.92 150.153
L 371.173 154.62
L 376.632 159.559
L 382.297 164.986
L 388.271 171.021
L 394.657 177.796
L 401.455 185.339
L 408.974 194.023
L 417.626 204.369
L 428.956 218.294
L 450.071 244.298
L 457.693 253.289
L 463.976 260.365
L 469.332 266.075
L 474.173 270.914
L 478.499 274.931
L 482.413 278.271
L 486.018 281.064
L 489.417 283.418
L 492.507 285.294
L 495.391 286.794
L 498.069 287.947
L 500.644 288.819
L 503.116 289.417
L 505.382 289.742
L 507.545 289.837
L 509.605 289.716
L 511.665 289.373
L 513.622 288.824
L 515.579 288.043
L 517.433 287.071
L 519.287 285.855
L 521.141 284.375
L 522.995 282.609
L 524.849 280.532
L 526.703 278.114
L 528.557 275.322
L 530.411 272.117
L 532.265 268.452
L 534.119 264.272
L 535.973 259.508
L 537.724 254.399
L 539.475 248.606
L 541.226 242.016
L 542.874 234.955
L 544.522 226.89
L 546.067 218.218
L 547.509 208.915
L 548.951 198.122
L 550.29 186.347
L 551.526 173.437
L 552.659 159.165
L 553.689 143.19
L 554.616 124.951
L 555.337 106.545
L 555.955 85.5154
L 556.47 60.7948
L 556.882 30.4258
L 557.136 -1
L 557.136 -1" style="fill:none;stroke:#00bb00;stroke-width:2.4;"/>
      </g>
      <g id="line2d_5">
        <path clip-path="url(#pa82c4e93f3)" d="
M 42.603 -1
L 42.603 401
M 42.6939 401
L 42.912 355.992
L 43.324 314.374
L 43.839 284.148
L 44.457 259.755
L 45.281 236.519
L 46.208 217.061
L 47.238 200.25
L 48.371 185.475
L 49.607 172.372
L 50.843 161.53
L 52.182 151.702
L 53.521 143.429
L 54.963 135.911
L 56.405 129.576
L 57.847 124.227
L 59.289 119.717
L 60.731 115.931
L 62.173 112.778
L 63.512 110.35
L 64.851 108.354
L 66.19 106.746
L 67.529 105.49
L 68.765 104.616
L 70.001 103.993
L 71.237 103.601
L 72.576 103.417
L 73.915 103.463
L 75.357 103.75
L 76.799 104.263
L 78.344 105.042
L 80.095 106.187
L 81.949 107.673
L 84.009 109.622
L 86.275 112.086
L 88.747 115.11
L 91.528 118.871
L 94.721 123.585
L 98.326 129.32
L 102.652 136.644
L 108.008 146.176
L 116.351 161.539
L 127.99 182.902
L 134.376 194.148
L 139.835 203.326
L 144.779 211.216
L 149.414 218.201
L 153.74 224.329
L 157.86 229.791
L 161.877 234.748
L 165.688 239.103
L 169.396 243.006
L 173.001 246.479
L 176.503 249.544
L 179.902 252.227
L 183.198 254.551
L 186.494 256.601
L 189.687 258.327
L 192.88 259.797
L 195.97 260.978
L 199.06 261.923
L 202.15 262.635
L 205.24 263.116
L 208.33 263.37
L 211.42 263.4
L 214.51 263.211
L 217.703 262.79
L 220.896 262.145
L 224.192 261.25
L 227.591 260.091
L 231.093 258.654
L 234.698 256.927
L 238.406 254.899
L 242.217 252.561
L 246.234 249.833
L 250.457 246.692
L 254.886 243.116
L 259.624 238.999
L 264.671 234.314
L 270.13 228.939
L 276.207 222.637
L 283.211 215.043
L 291.966 205.203
L 320.085 173.345
L 326.986 166.014
L 332.96 159.982
L 338.419 154.783
L 343.466 150.283
L 348.101 146.442
L 352.53 143.058
L 356.65 140.182
L 360.667 137.647
L 364.478 135.502
L 368.186 133.672
L 371.688 132.185
L 375.087 130.976
L 378.383 130.031
L 381.679 129.318
L 384.872 128.853
L 388.065 128.616
L 391.155 128.61
L 394.245 128.826
L 397.335 129.269
L 400.425 129.942
L 403.515 130.848
L 406.605 131.99
L 409.695 133.369
L 412.785 134.987
L 415.978 136.911
L 419.171 139.092
L 422.467 141.612
L 425.866 144.496
L 429.368 147.767
L 432.973 151.45
L 436.681 155.564
L 440.492 160.131
L 444.406 165.167
L 448.526 170.832
L 452.852 177.162
L 457.487 184.347
L 462.431 192.429
L 467.89 201.786
L 474.276 213.192
L 483.443 230.079
L 494.155 249.721
L 499.511 259.07
L 503.734 266.005
L 507.236 271.35
L 510.326 275.676
L 513.004 279.066
L 515.476 281.846
L 517.639 283.961
L 519.596 285.585
L 521.45 286.838
L 523.098 287.693
L 524.643 288.25
L 526.085 288.537
L 527.424 288.583
L 528.763 288.399
L 529.999 288.007
L 531.235 287.384
L 532.471 286.51
L 533.707 285.363
L 534.943 283.918
L 536.179 282.147
L 537.518 279.823
L 538.857 277.031
L 540.196 273.713
L 541.535 269.801
L 542.874 265.212
L 544.213 259.84
L 545.552 253.552
L 546.891 246.171
L 548.23 237.457
L 549.466 227.937
L 550.702 216.592
L 551.835 204.065
L 552.865 190.237
L 553.792 174.939
L 554.616 157.921
L 555.337 138.799
L 555.955 116.966
L 556.47 91.3908
L 556.882 60.1624
L 557.191 19.1379
L 557.279 -1
L 557.279 -1" style="fill:none;stroke:#00bbcc;stroke-width:2.4;"/>
      </g>
      <g id="matplotlib.axis_1">
        <g id="xtick_1">
          <g id="line2d_6">
            <path clip-path="url(#pa82c4e93f3)" d="
M 42.5 373.5
L 42.5 18.5" style="fill:none;stroke:#000000;stroke-dasharray:1.000000,3.000000;stroke-dashoffset:0.0;stroke-linecap:butt;stroke-width:0.5;"/>
          </g>
          <g id="line2d_7">
            <defs>
              <path d="
M 0 0
L 0 -4" id="ma222041d45" style="stroke:#000000;stroke-linecap:butt;stroke-width:1.25;"/>
            </defs>
            <g>
              <use style="stroke:#000000;stroke-linecap:butt;stroke-width:1.25;" x="42.5" xlink:href="#ma222041d45" y="373.5"/>
            </g>
          </g>
          <g id="line2d_8">
            <defs>
              <path d="
M 0 0
L 0 4" id="mab2f347831" style="stroke:#000000;stroke-linecap:butt;stroke-width:1.25;"/>
            </defs>
            <g>
              <use style="stroke:#000000;stroke-linecap:butt;stroke-width:1.25;" x="42.5" xlink:href="#mab2f347831" y="18.5"/>
            </g>
          </g>
          <g id="text_1">
            <!-- −1.0 -->
            <defs>
              <path d="
M 12.4062 8.29688
L 28.5156 8.29688
L 28.5156 63.9219
L 10.9844 60.4062
L 10.9844 69.3906
L 28.4219 72.9062
L 38.2812 72.9062
L 38.2812 8.29688
L 54.3906 8.29688
L 54.3906 0
L 12.4062 0
z 
" id="DejaVuSans-31"/>
              <path d="
M 31.7812 66.4062
Q 24.1719 66.4062 20.3281 58.9062
Q 16.5 51.4219 16.5 36.375
Q 16.5 21.3906 20.3281 13.8906
Q 24.1719 6.39062 31.7812 6.39062
Q 39.4531 6.39062 43.2812 13.8906
Q 47.125 21.3906 47.125 36.375
Q 47.125 51.4219 43.2812 58.9062
Q 39.4531 66.4062 31.7812 66.4062
M 31.7812 74.2188
Q 44.0469 74.2188 50.5156 64.5156
Q 56.9844 54.8281 56.9844 36.375
Q 56.9844 17.9688 50.5156 8.26562
Q 44.0469 -1.42188 31.7812 -1.42188
Q 19.5312 -1.42188 13.0625 8.26562
Q 6.59375 17.9688 6.59375 36.375
Q 6.59375 54.8281 13.0625 64.5156
Q 19.5312 74.2188 31.7812 74.2188" id="DejaVuSans-30"/>
              <path d="
M 10.6875 12.4062
L 21 12.4062
L 21 0
L 10.6875 0
z 
" id="DejaVuSans-2e"/>
              <path d="
M 10.5938 35.5
L 73.1875 35.5
L 73.1875 27.2031
L 10.5938 27.2031
z 
" id="DejaVuSans-2212"/>
            </defs>
            <g transform="translate(24.4525 392.375)scale(0.16 -0.16)">
              <use xlink:href="#DejaVuSans-2212"/>
              <use x="83.7890625" xlink:href="#DejaVuSans-31"/>
              <use x="147.412109375" xlink:href="#DejaVuSans-2e"/>
              <use x="179.19921875" xlink:href="#DejaVuSans-30"/>
            </g>
          </g>
        </g>
        <g id="xtick_2">
          <g id="line2d_9">
            <path clip-path="url(#pa82c4e93f3)" d="
M 171.25 373.5
L 171.25 18.5" style="fill:none;stroke:#000000;stroke-dasharray:1.000000,3.000000;stroke-dashoffset:0.0;stroke-linecap:butt;stroke-width:0.5;"/>
          </g>
          <g id="line2d_10">
            <g>
              <use style="stroke:#000000;stroke-linecap:butt;stroke-width:1.25;" x="171.25" xlink:href="#ma222041d45" y="373.5"/>
            </g>
          </g>
          <g id="line2d_11">
            <g>
              <use style="stroke:#000000;stroke-linecap:butt;stroke-width:1.25;" x="171.25" xlink:href="#mab2f347831" y="18.5"/>
            </g>
          </g>
          <g id="text_2">
            <!-- −0.5 -->
            <defs>
              <path d="
M 10.7969 72.9062
L 49.5156 72.9062
L 49.5156 64.5938
L 19.8281 64.5938
L 19.8281 46.7344
Q 21.9688 47.4688 24.1094 47.8281
Q 26.2656 48.1875 28.4219 48.1875
Q 40.625 48.1875 47.75 41.5
Q 54.8906 34.8125 54.8906 23.3906
Q 54.8906 11.625 47.5625 5.09375
Q 40.2344 -1.42188 26.9062 -1.42188
Q 22.3125 -1.42188 17.5469 -0.640625
Q 12.7969 0.140625 7.71875 1.70312
L 7.71875 11.625
Q 12.1094 9.23438 16.7969 8.0625
Q 21.4844 6.89062 26.7031 6.89062
Q 35.1562 6.89062 40.0781 11.3281
Q 45.0156 15.7656 45.0156 23.3906
Q 45.0156 31 40.0781 35.4375
Q 35.1562 39.8906 26.7031 39.8906
Q 22.75 39.8906 18.8125 39.0156
Q 14.8906 38.1406 10.7969 36.2812
z 
" id="DejaVuSans-35"/>
            </defs>
            <g transform="translate(153.37 392.375)scale(0.16 -0.16)">
              <use xlink:href="#DejaVuSans-2212"/>
              <use x="83.7890625" xlink:href="#DejaVuSans-30"/>
              <use x="147.412109375" xlink:href="#DejaVuSans-2e"/>
              <use x="179.19921875" xlink:href="#DejaVuSans-35"/>
            </g>
          </g>
        </g>
        <g id="xtick_3">
          <g id="line2d_12">
            <path clip-path="url(#pa82c4e93f3)" d="
M 300 373.5
L 300 18.5" style="fill:none;stroke:#000000;stroke-dasharray:3.000000,1.000000;stroke-dashoffset:0.0;stroke-linecap:butt;stroke-width:0.5;"/>
          </g>
          <g id="line2d_13">
            <g>
              <use style="stroke:#000000;stroke-linecap:butt;stroke-width:1.25;" x="300.0" xlink:href="#ma222041d45" y="373.5"/>
            </g>
          </g>
          <g id="line2d_14">
            <g>
              <use style="stroke:#000000;stroke-linecap:butt;stroke-width:1.25;" x="300.0" xlink:href="#mab2f347831" y="18.5"/>
            </g>
          </g>
          <g id="text_3">
            <!-- 0.0 -->
            <g transform="translate(288.33625 392.375)scale(0.16 -0.16)">
              <use xlink:href="#DejaVuSans-30"/>
              <use x="63.623046875" xlink:href="#DejaVuSans-2e"/>
              <use x="95.41015625" xlink:href="#DejaVuSans-30"/>
            </g>
          </g>
        </g>
        <g id="xtick_4">
          <g id="line2d_15">
            <path clip-path="url(#pa82c4e93f3)" d="
M 428.75 373.5
L 428.75 18.5" style="fill:none;stroke:#000000;stroke-dasharray:1.000000,3.000000;stroke-dashoffset:0.0;stroke-linecap:butt;stroke-width:0.5;"/>
          </g>
          <g id="line2d_16">
            <g>
              <use style="stroke:#000000;stroke-linecap:butt;stroke-width:1.25;" x="428.75" xlink:href="#ma222041d45" y="373.5"/>
            </g>
          </g>
          <g id="line2d_17">
            <g>
              <use style="stroke:#000000;stroke-linecap:butt;stroke-width:1.25;" x="428.75" xlink:href="#mab2f347831" y="18.5"/>
            </g>
          </g>
          <g id="text_4">
            <!-- 0.5 -->
            <g transform="translate(417.25375 392.375)scale(0.16 -0.16)">
              <use xlink:href="#DejaVuSans-30"/>
              <use x="63.623046875" xlink:href="#DejaVuSans-2e"/>
              <use x="95.41015625" xlink:href="#DejaVuSans-35"/>
            </g>
          </g>
        </g>
        <g id="xtick_5">
          <g id="line2d_18">
            <path clip-path="url(#pa82c4e93f3)" d="
M 557.5 373.5
L 557.5 18.5" style="fill:none;stroke:#000000;stroke-dasharray:1.000000,3.000000;stroke-dashoffset:0.0;stroke-linecap:butt;stroke-width:0.5;"/>
          </g>
          <g id="line2d_19">
            <g>
              <use style="stroke:#000000;stroke-linecap:butt;stroke-width:1.25;" x="557.5" xlink:href="#ma222041d45" y="373.5"/>
            </g>
          </g>
          <g id="line2d_20">
            <g>
              <use style="stroke:#000000;stroke-linecap:butt;stroke-width:1.25;" x="557.5" xlink:href="#mab2f347831" y="18.5"/>
            </g>
          </g>
          <g id="text_5">
            <!-- 1.0 -->
            <g transform="translate(546.1875 392.375)scale(0.16 -0.16)">
              <use xlink:href="#DejaVuSans-31"/>
              <use x="63.623046875" xlink:href="#DejaVuSans-2e"/>
              <use x="95.41015625" xlink:href="#DejaVuSans-30"/>
            </g>
          </g>
        </g>
      </g>
      <g id="matplotlib.axis_2">
        <g id="ytick_1">
          <g id="line2d_21">
            <path clip-path="url(#pa82c4e93f3)" d="
M 42.5 362.406
L 557.5 362.406" style="fill:none;stroke:#000000;stroke-dasharray:1.000000,3.000000;stroke-dashoffset:0.0;stroke-linecap:butt;stroke-width:0.5;"/>
          </g>
          <g id="line2d_22">
            <defs>
              <path d="
M 0 0
L 4 0" id="m1eb0c910b5" style="stroke:#000000;stroke-linecap:butt;stroke-width:1.25;"/>
            </defs>
            <g>
              <use style="stroke:#000000;stroke-linecap:butt;stroke-width:1.25;" x="42.5" xlink:href="#m1eb0c910b5" y="362.40625"/>
            </g>
          </g>
          <g id="line2d_23">
            <defs>
              <path d="
M 0 0
L -4 0" id="mb63a56c30e" style="stroke:#000000;stroke-linecap:butt;stroke-width:1.25;"/>
            </defs>
            <g>
              <use style="stroke:#000000;stroke-linecap:butt;stroke-width:1.25;" x="557.5" xlink:href="#mb63a56c30e" y="362.40625"/>
            </g>
          </g>
          <g id="text_6">
            <!-- −1.5 -->
            <g transform="translate(-0.26 368.125)scale(0.16 -0.16)">
              <use xlink:href="#DejaVuSans-2212"/>
              <use x="83.7890625" xlink:href="#DejaVuSans-31"/>
              <use x="147.412109375" xlink:href="#DejaVuSans-2e"/>
              <use x="179.19921875" xlink:href="#DejaVuSans-35"/>
            </g>
          </g>
        </g>
        <g id="ytick_2">
          <g id="line2d_24">
            <path clip-path="url(#pa82c4e93f3)" d="
M 42.5 306.938
L 557.5 306.938" style="fill:none;stroke:#000000;stroke-dasharray:1.000000,3.000000;stroke-dashoffset:0.0;stroke-linecap:butt;stroke-width:0.5;"/>
          </g>
          <g id="line2d_25">
            <g>
              <use style="stroke:#000000;stroke-linecap:butt;stroke-width:1.25;" x="42.5" xlink:href="#m1eb0c910b5" y="306.9375"/>
            </g>
          </g>
          <g id="line2d_26">
            <g>
              <use style="stroke:#000000;stroke-linecap:butt;stroke-width:1.25;" x="557.5" xlink:href="#mb63a56c30e" y="306.9375"/>
            </g>
          </g>
          <g id="text_7">
            <!-- −1.0 -->
            <g transform="translate(-0.595 312.76125)scale(0.16 -0.16)">
              <use xlink:href="#DejaVuSans-2212"/>
              <use x="83.7890625" xlink:href="#DejaVuSans-31"/>
              <use x="147.412109375" xlink:href="#DejaVuSans-2e"/>
              <use x="179.19921875" xlink:href="#DejaVuSans-30"/>
            </g>
          </g>
        </g>
        <g id="ytick_3">
          <g id="line2d_27">
            <path clip-path="url(#pa82c4e93f3)" d="
M 42.5 251.469
L 557.5 251.469" style="fill:none;stroke:#000000;stroke-dasharray:1.000000,3.000000;stroke-dashoffset:0.0;stroke-linecap:butt;stroke-width:0.5;"/>
          </g>
          <g id="line2d_28">
            <g>
              <use style="stroke:#000000;stroke-linecap:butt;stroke-width:1.25;" x="42.5" xlink:href="#m1eb0c910b5" y="251.46875"/>
            </g>
          </g>
          <g id="line2d_29">
            <g>
              <use style="stroke:#000000;stroke-linecap:butt;stroke-width:1.25;" x="557.5" xlink:href="#mb63a56c30e" y="251.46875"/>
            </g>
          </g>
          <g id="text_8">
            <!-- −0.5 -->
            <g transform="translate(-0.26 257.2925)scale(0.16 -0.16)">
              <use xlink:href="#DejaVuSans-2212"/>
              <use x="83.7890625" xlink:href="#DejaVuSans-30"/>
              <use x="147.412109375" xlink:href="#DejaVuSans-2e"/>
              <use x="179.19921875" xlink:href="#DejaVuSans-35"/>
            </g>
          </g>
        </g>
        <g id="ytick_4">
          <g id="line2d_30">
            <path clip-path="url(#pa82c4e93f3)" d="
M 42.5 196
L 557.5 196" style="fill:none;stroke:#000000;stroke-dasharray:3.000000,1.000000;stroke-dashoffset:0.0;stroke-linecap:butt;stroke-width:0.5;"/>
          </g>
          <g id="line2d_31">
            <g>
              <use style="stroke:#000000;stroke-linecap:butt;stroke-width:1.25;" x="42.5" xlink:href="#m1eb0c910b5" y="196.0"/>
            </g>
          </g>
          <g id="line2d_32">
            <g>
              <use style="stroke:#000000;stroke-linecap:butt;stroke-width:1.25;" x="557.5" xlink:href="#mb63a56c30e" y="196.0"/>
            </g>
          </g>
          <g id="text_9">
            <!-- 0.0 -->
            <g transform="translate(12.1725 201.82375)scale(0.16 -0.16)">
              <use xlink:href="#DejaVuSans-30"/>
              <use x="63.623046875" xlink:href="#DejaVuSans-2e"/>
              <use x="95.41015625" xlink:href="#DejaVuSans-30"/>
            </g>
          </g>
        </g>
        <g id="ytick_5">
          <g id="line2d_33">
            <path clip-path="url(#pa82c4e93f3)" d="
M 42.5 140.531
L 557.5 140.531" style="fill:none;stroke:#000000;stroke-dasharray:1.000000,3.000000;stroke-dashoffset:0.0;stroke-linecap:butt;stroke-width:0.5;"/>
          </g>
          <g id="line2d_34">
            <g>
              <use style="stroke:#000000;stroke-linecap:butt;stroke-width:1.25;" x="42.5" xlink:href="#m1eb0c910b5" y="140.53125"/>
            </g>
          </g>
          <g id="line2d_35">
            <g>
              <use style="stroke:#000000;stroke-linecap:butt;stroke-width:1.25;" x="557.5" xlink:href="#mb63a56c30e" y="140.53125"/>
            </g>
          </g>
          <g id="text_10">
            <!-- 0.5 -->
            <g transform="translate(12.5075 146.355)scale(0.16 -0.16)">
              <use xlink:href="#DejaVuSans-30"/>
              <use x="63.623046875" xlink:href="#DejaVuSans-2e"/>
              <use x="95.41015625" xlink:href="#DejaVuSans-35"/>
            </g>
          </g>
        </g>
        <g id="ytick_6">
          <g id="line2d_36">
            <path clip-path="url(#pa82c4e93f3)" d="
M 42.5 85.0625
L 557.5 85.0625" style="fill:none;stroke:#000000;stroke-dasharray:1.000000,3.000000;stroke-dashoffset:0.0;stroke-linecap:butt;stroke-width:0.5;"/>
          </g>
          <g id="line2d_37">
            <g>
              <use style="stroke:#000000;stroke-linecap:butt;stroke-width:1.25;" x="42.5" xlink:href="#m1eb0c910b5" y="85.0625"/>
            </g>
          </g>
          <g id="line2d_38">
            <g>
              <use style="stroke:#000000;stroke-linecap:butt;stroke-width:1.25;" x="557.5" xlink:href="#mb63a56c30e" y="85.0625"/>
            </g>
          </g>
          <g id="text_11">
            <!-- 1.0 -->
            <g transform="translate(12.875 90.88625)scale(0.16 -0.16)">
              <use xlink:href="#DejaVuSans-31"/>
              <use x="63.623046875" xlink:href="#DejaVuSans-2e"/>
              <use x="95.41015625" xlink:href="#DejaVuSans-30"/>
            </g>
          </g>
        </g>
        <g id="ytick_7">
          <g id="line2d_39">
            <path clip-path="url(#pa82c4e93f3)" d="
M 42.5 29.5938
L 557.5 29.5938" style="fill:none;stroke:#000000;stroke-dasharray:1.000000,3.000000;stroke-dashoffset:0.0;stroke-linecap:butt;stroke-width:0.5;"/>
          </g>
          <g id="line2d_40">
            <g>
              <use style="stroke:#000000;stroke-linecap:butt;stroke-width:1.25;" x="42.5" xlink:href="#m1eb0c910b5" y="29.59375"/>
            </g>
          </g>
          <g id="line2d_41">
            <g>
              <use style="stroke:#000000;stroke-linecap:butt;stroke-width:1.25;" x="557.5" xlink:href="#mb63a56c30e" y="29.59375"/>
            </g>
          </g>
          <g id="text_12">
            <!-- 1.5 -->
            <g transform="translate(13.21 35.3125)scale(0.16 -0.16)">
              <use xlink:href="#DejaVuSans-31"/>
              <use x="63.623046875" xlink:href="#DejaVuSans-2e"/>
              <use x="95.41015625" xlink:href="#DejaVuSans-35"/>
            </g>
          </g>
        </g>
      </g>
      <g id="patch_3">
        <path d="
M 42.5 18.5
L 557.5 18.5" style="fill:none;stroke:#000000;stroke-width:1.25;"/>
      </g>
      <g id="patch_4">
        <path d="
M 557.5 373.5
L 557.5 18.5" style="fill:none;stroke:#000000;stroke-width:1.25;"/>
      </g>
      <g id="patch_5">
        <path d="
M 42.5 373.5
L 557.5 373.5" style="fill:none;stroke:#000000;stroke-width:1.25;"/>
      </g>
      <g id="patch_6">
        <path d="
M 42.5 373.5
L 42.5 18.5" style="fill:none;stroke:#000000;stroke-width:1.25;"/>
      </g>
      <g id="legend_1">
        <g id="patch_7">
          <path d="
M 141.803 94.466
L 458.197 94.466
L 458.197 33.86
L 141.803 33.86
L 141.803 94.466
z 
" style="fill:#ffffff;opacity:0.9;stroke:#000000;"/>
        </g>
        <g id="line2d_42">
          <path d="
M 155.243 49.409
L 182.123 49.409" style="fill:none;stroke:#0000cc;stroke-width:2.4;"/>
        </g>
        <g id="line2d_43"/>
        <g id="text_13">
          <!-- Q₀ -->
          <defs>
            <path d="
M 27.8281 32.6719
Q 25.3906 36.875 20.4531 36.875
Q 15.5312 36.875 13.0938 32.6719
Q 10.5938 28.4688 10.5938 20.0781
Q 10.5938 11.625 13.0938 7.4375
Q 15.5312 3.23438 20.4531 3.23438
Q 25.3906 3.23438 27.8281 7.4375
Q 30.3281 11.625 30.3281 20.0781
Q 30.3281 28.4688 27.8281 32.6719
z 

M 20.4531 41.2188
Q 28.3281 41.2188 32.4688 35.7969
Q 36.625 30.375 36.625 20.0781
Q 36.625 9.71875 32.4688 4.29688
Q 28.3281 -1.10938 20.4531 -1.10938
Q 12.5469 -1.10938 8.39062 4.29688
Q 4.25 9.71875 4.25 20.0781
Q 4.25 30.375 8.39062 35.7969
Q 12.5469 41.2188 20.4531 41.2188" id="DejaVuSans-2080"/>
            <path d="
M 39.4062 66.2188
Q 28.6562 66.2188 22.3281 58.2031
Q 16.0156 50.2031 16.0156 36.375
Q 16.0156 22.6094 22.3281 14.5938
Q 28.6562 6.59375 39.4062 6.59375
Q 50.1406 6.59375 56.4219 14.5938
Q 62.7031 22.6094 62.7031 36.375
Q 62.7031 50.2031 56.4219 58.2031
Q 50.1406 66.2188 39.4062 66.2188
M 53.2188 1.3125
L 66.2188 -12.8906
L 54.2969 -12.8906
L 43.5 -1.21875
Q 41.8906 -1.3125 41.0312 -1.35938
Q 40.1875 -1.42188 39.4062 -1.42188
Q 24.0312 -1.42188 14.8125 8.85938
Q 5.60938 19.1406 5.60938 36.375
Q 5.60938 53.6562 14.8125 63.9375
Q 24.0312 74.2188 39.4062 74.2188
Q 54.7344 74.2188 63.9062 63.9375
Q 73.0938 53.6562 73.0938 36.375
Q 73.0938 23.6875 67.9844 14.6406
Q 62.8906 5.60938 53.2188 1.3125" id="DejaVuSans-51"/>
          </defs>
          <g transform="translate(203.2425 56.129)scale(0.192 -0.192)">
            <use xlink:href="#DejaVuSans-51"/>
            <use x="78.7109375" xlink:href="#DejaVuSans-2080"/>
          </g>
        </g>
        <g id="line2d_44">
          <path d="
M 155.243 77.591
L 182.123 77.591" style="fill:none;stroke:#dd00aa;stroke-width:2.4;"/>
        </g>
        <g id="line2d_45"/>
        <g id="text_14">
          <!-- Q₁ -->
          <defs>
            <path d="
M 7.625 4.98438
L 17.5781 4.98438
L 17.5781 34.8281
L 6.6875 32.8281
L 6.6875 38.4844
L 17.9219 40.3906
L 24.6094 40.3906
L 24.6094 4.98438
L 34.625 4.98438
L 34.625 -0.375
L 7.625 -0.375
z 
" id="DejaVuSans-2081"/>
          </defs>
          <g transform="translate(203.2425 84.311)scale(0.192 -0.192)">
            <use xlink:href="#DejaVuSans-51"/>
            <use x="78.7109375" xlink:href="#DejaVuSans-2081"/>
          </g>
        </g>
        <g id="line2d_46">
          <path d="
M 268.471 49.409
L 295.351 49.409" style="fill:none;stroke:#bbbb00;stroke-width:2.4;"/>
        </g>
        <g id="line2d_47"/>
        <g id="text_15">
          <!-- Q₂ -->
          <defs>
            <path d="
M 13.0938 5.1875
L 33.7969 5.1875
L 33.7969 -0.375
L 4.59375 -0.375
L 4.59375 4.98438
Q 6.25 6.5 9.32812 9.23438
Q 26.125 24.125 26.125 28.7188
Q 26.125 31.9375 23.5781 33.9062
Q 21.0469 35.8906 16.8906 35.8906
Q 14.3594 35.8906 11.375 35.0312
Q 8.40625 34.1875 4.89062 32.4844
L 4.89062 38.4844
Q 8.64062 39.8594 11.8906 40.5312
Q 15.1406 41.2188 17.9219 41.2188
Q 25 41.2188 29.25 38
Q 33.5 34.7812 33.5 29.5
Q 33.5 22.7188 17.3281 8.84375
Q 14.5938 6.5 13.0938 5.1875" id="DejaVuSans-2082"/>
          </defs>
          <g transform="translate(316.4715 56.129)scale(0.192 -0.192)">
            <use xlink:href="#DejaVuSans-51"/>
            <use x="78.7109375" xlink:href="#DejaVuSans-2082"/>
          </g>
        </g>
        <g id="line2d_48">
          <path d="
M 268.471 77.591
L 295.351 77.591" style="fill:none;stroke:#00bb00;stroke-width:2.4;"/>
        </g>
        <g id="line2d_49"/>
        <g id="text_16">
          <!-- Q₃ -->
          <defs>
            <path d="
M 25.5938 21.6875
Q 30.0781 20.8125 32.5469 18.1406
Q 35.0156 15.4844 35.0156 11.4844
Q 35.0156 5.42188 30.375 2.15625
Q 25.7344 -1.10938 17.0938 -1.10938
Q 14.3125 -1.10938 11.25 -0.59375
Q 8.20312 -0.09375 4.78125 0.890625
L 4.78125 6.79688
Q 7.32812 5.48438 10.2344 4.84375
Q 13.1406 4.20312 16.4062 4.20312
Q 21.7344 4.20312 24.6562 6.125
Q 27.5938 8.0625 27.5938 11.4844
Q 27.5938 15.0938 24.875 16.9531
Q 22.1719 18.8125 16.8906 18.8125
L 12.7031 18.8125
L 12.7031 24.0781
L 17.2812 24.0781
Q 21.875 24.0781 24.2344 25.6094
Q 26.6094 27.1562 26.6094 30.0938
Q 26.6094 32.9219 24.1719 34.4062
Q 21.7344 35.8906 17.0938 35.8906
Q 15.1406 35.8906 12.6406 35.4531
Q 10.1562 35.0156 6.20312 33.8906
L 6.20312 39.5156
Q 9.76562 40.3438 12.8906 40.7812
Q 16.0156 41.2188 18.7031 41.2188
Q 25.7344 41.2188 29.8594 38.3281
Q 33.9844 35.4531 33.9844 30.625
Q 33.9844 27.25 31.7812 24.9062
Q 29.5938 22.5625 25.5938 21.6875" id="DejaVuSans-2083"/>
          </defs>
          <g transform="translate(316.4715 84.311)scale(0.192 -0.192)">
            <use xlink:href="#DejaVuSans-51"/>
            <use x="78.7109375" xlink:href="#DejaVuSans-2083"/>
          </g>
        </g>
        <g id="line2d_50">
          <path d="
M 381.391 49.409
L 408.271 49.409" style="fill:none;stroke:#00bbcc;stroke-width:2.4;"/>
        </g>
        <g id="line2d_51"/>
        <g id="text_17">
          <!-- Q₄ -->
          <defs>
            <path d="
M 23.2969 34.4844
L 8.20312 14.0156
L 23.2969 14.0156
z 

M 22.2188 40.3906
L 30.3281 40.3906
L 30.3281 14.0156
L 36.9219 14.0156
L 36.9219 8.70312
L 30.3281 8.70312
L 30.3281 -0.375
L 23.2969 -0.375
L 23.2969 8.70312
L 3.07812 8.70312
L 3.07812 14.6094
z 
" id="DejaVuSans-2084"/>
          </defs>
          <g transform="translate(429.3915 56.129)scale(0.192 -0.192)">
            <use xlink:href="#DejaVuSans-51"/>
            <use x="78.7109375" xlink:href="#DejaVuSans-2084"/>
          </g>
        </g>
      </g>
    </g>
  </g>
</svg>
